<svg xmlns="http://www.w3.org/2000/svg" xmlns:xlink="http://www.w3.org/1999/xlink" width="1080" zoomAndPan="magnify" viewBox="0 0 810 809.999993" height="1080" preserveAspectRatio="xMidYMid meet" version="1.0"><defs><clipPath id="1c010cc10a"><path d="M 25.136719 29.699219 L 783 29.699219 L 783 779.699219 L 25.136719 779.699219 Z M 25.136719 29.699219 " clip-rule="nonzero"/></clipPath></defs><g clip-path="url(#1c010cc10a)"><path fill="#ffffff" d="M 330.472656 771.902344 C 54.453125 714.664062 -66.097656 395.292969 105.234375 175.160156 C 284.363281 -54.992188 645.171875 -3.265625 755.949219 268.445312 C 865.914062 538.175781 618.003906 831.523438 330.472656 771.902344 Z M 435.828125 673.089844 C 438.816406 654.640625 446.699219 632.851562 454.578125 621.261719 C 458.59375 615.355469 458.59375 615.355469 479.175781 620.648438 C 506.378906 627.640625 533.679688 630.789062 531.113281 626.632812 C 530.070312 624.945312 524.167969 623.550781 517.996094 623.535156 C 480.625 623.425781 438.695312 599.433594 423.507812 569.464844 C 416.015625 554.683594 413.886719 553.292969 416.160156 564.671875 C 417.933594 573.523438 416.859375 574.1875 408.222656 569.585938 C 395.914062 563.03125 391.078125 545.054688 399.699219 537.898438 C 405.113281 533.40625 404.753906 525.492188 398.75 516.898438 C 390.617188 505.25 389.933594 496.808594 395.652344 478.558594 C 398.574219 469.234375 400.984375 457.21875 401.003906 451.859375 C 401.066406 433.867188 437.132812 391.609375 463.363281 378.792969 C 556.640625 333.226562 661.898438 415.167969 639.371094 515.820312 C 636.632812 528.054688 636.785156 531.070312 640.40625 536.597656 C 648.027344 548.234375 643.777344 560.308594 628.789062 569.585938 C 606.253906 583.53125 585.03125 612.402344 590.636719 621.488281 C 593.613281 626.3125 599.121094 639.292969 602.875 650.335938 C 608.511719 666.910156 609.71875 668.835938 609.773438 661.382812 C 609.835938 653.710938 613.417969 648.609375 633.597656 627.5 C 829.808594 422.257812 697.582031 85.667969 416.742188 75.484375 C 127.476562 64.996094 -30.960938 398.773438 159.953125 616.46875 C 169.796875 627.695312 173.226562 633.566406 172.070312 637.214844 C 171.179688 640.015625 171.609375 642.304688 173.023438 642.304688 C 174.433594 642.304688 176.371094 638.992188 177.332031 634.941406 C 197.558594 549.445312 202.65625 540.746094 239.746094 528.421875 C 276.636719 516.167969 278.757812 511.902344 254.429688 498.929688 C 231.976562 486.960938 218.851562 461.273438 209.757812 411.503906 C 206.621094 394.324219 206.160156 393.375 205.90625 403.519531 C 205.464844 420.980469 213.183594 451.402344 223.316406 472.152344 C 228.304688 482.371094 232.386719 490.988281 232.386719 491.300781 C 232.386719 491.613281 228.773438 493.125 224.355469 494.667969 C 216.46875 497.417969 216.324219 497.304688 216.324219 488.453125 C 216.324219 471.828125 214.820312 470.574219 197.261719 472.5625 C 179.15625 474.609375 179.144531 474.597656 185.753906 452.34375 C 190.6875 435.730469 191.214844 436.378906 165.847656 427.871094 C 148.835938 422.164062 148.835938 422.164062 165.699219 405.144531 C 183.957031 386.722656 177.527344 371.414062 148.242188 363.578125 C 126.023438 357.636719 126.046875 358.195312 147.382812 343.300781 C 179.773438 320.683594 179.746094 321.003906 151.855469 290.273438 C 134.847656 271.535156 134.847656 271.535156 162.871094 269.371094 C 201.335938 266.402344 202.9375 265.960938 202.9375 258.335938 C 202.9375 252.511719 196.027344 228.199219 190.777344 215.5625 C 188.089844 209.089844 197.851562 210.628906 222.390625 220.539062 C 243.109375 228.910156 253.648438 215.316406 253.84375 179.964844 C 253.941406 162.253906 259.273438 166.101562 293.5625 208.625 C 298.957031 215.316406 298.957031 215.316406 311.851562 202.804688 C 324.132812 190.882812 351.742188 171.144531 356.136719 171.144531 C 357.273438 171.144531 358.347656 182.289062 358.523438 195.90625 C 359.097656 240.996094 361.753906 243.203125 398.152344 228.832031 C 419.964844 220.222656 419.769531 219.234375 402.257812 249.730469 C 384.644531 280.398438 384.328125 279.335938 412.363281 283.601562 C 424.539062 285.457031 435.527344 287.5625 436.78125 288.28125 C 438.039062 289.003906 430.273438 298.445312 419.527344 309.261719 C 397.425781 331.515625 397.238281 330.210938 424.117188 341.355469 C 439.140625 347.582031 443.253906 350.339844 440.644531 352.441406 C 435.183594 356.839844 406.09375 370.851562 394.875 374.484375 C 381.804688 378.722656 382.960938 381.566406 403.203125 394.980469 C 419.816406 405.992188 419.816406 405.992188 401.15625 414.335938 C 382.496094 422.675781 382.496094 422.675781 386.414062 433.777344 C 391.769531 448.957031 391.574219 449.558594 381.285156 449.558594 C 368.492188 449.558594 364.753906 454.984375 371.574219 463.65625 C 378.914062 472.984375 378.347656 475.59375 368.53125 477.75 C 363.90625 478.765625 355.171875 484.121094 349.125 489.652344 C 343.074219 495.179688 334.210938 501.703125 329.425781 504.148438 C 318.84375 509.550781 318.324219 515.894531 327.558594 526.871094 C 340.878906 542.703125 371.589844 604.207031 371.589844 615.054688 C 371.589844 617.425781 365.910156 625.132812 358.964844 632.183594 C 346.34375 645 346.34375 645 361.644531 660.460938 C 370.058594 668.964844 376.945312 677.394531 376.945312 679.191406 C 376.945312 680.988281 378.148438 682.460938 379.621094 682.460938 C 385.679688 682.460938 381.449219 675.066406 367.085938 660.550781 C 351.875 645.179688 351.875 645.179688 364.410156 634.144531 C 371.304688 628.074219 376.945312 620.847656 376.945312 618.082031 C 376.945312 607.148438 354.921875 558.90625 340.980469 539.296875 C 329.292969 522.859375 328.390625 523.265625 357.691406 531.777344 C 385.761719 539.933594 390.203125 550.089844 418.894531 671.753906 C 428.980469 714.53125 429.109375 714.542969 435.828125 673.089844 Z M 435.828125 673.089844 " fill-opacity="1" fill-rule="nonzero"/></g></svg>